<?xml version="1.0" standalone="no"?>
<!DOCTYPE svg PUBLIC "-//W3C//DTD SVG 20010904//EN"
 "http://www.w3.org/TR/2001/REC-SVG-20010904/DTD/svg10.dtd">
<svg version="1.0" xmlns="http://www.w3.org/2000/svg"
 width="1351.000000pt" height="850.000000pt" viewBox="0 0 1351.000000 850.000000"
 preserveAspectRatio="xMidYMid meet">

<g transform="translate(0.000000,850.000000) scale(0.100000,-0.100000)"
fill="#000000" stroke="none">
<path d="M186 8350 c-17 -10 -40 -36 -53 -57 l-23 -38 0 -3847 c0 -2700 3
-3855 11 -3875 13 -35 45 -70 84 -91 27 -16 131 -17 1178 -20 l1147 -2 0 75 0
75 -1135 0 -1135 0 2 3833 3 3832 6445 0 6445 0 3 -3832 2 -3833 -1195 0
-1195 0 0 -70 0 -69 33 -6 c17 -3 561 -5 1207 -3 1314 3 1208 -3 1267 75 l28
36 3 3855 2 3856 -21 42 c-11 24 -35 52 -53 64 l-33 20 -6494 0 c-6410 0
-6494 0 -6523 -20z"/>
<path d="M6225 7904 c-16 -2 -84 -11 -150 -20 -569 -74 -1140 -323 -1575 -688
-621 -521 -1002 -1210 -1116 -2021 -26 -183 -26 -606 -1 -790 99 -715 400
-1328 897 -1825 592 -593 1380 -919 2215 -919 722 0 1407 242 1975 698 131
105 369 344 474 476 356 448 568 938 658 1520 30 191 33 653 5 845 -99 694
-384 1285 -852 1769 -498 515 -1119 832 -1835 937 -109 16 -615 29 -695 18z
m-325 -1169 l0 -185 -187 2 -188 3 -3 183 -2 182 190 0 190 0 0 -185z m-792
-397 l2 -188 -185 0 -185 0 0 183 c0 101 3 187 7 191 4 3 86 5 182 4 l176 -3
3 -187z m400 0 l2 -188 -184 0 c-182 0 -184 0 -190 23 -8 29 -8 305 0 335 6
22 7 22 188 20 l181 -3 3 -187z m-398 -393 l0 -185 -185 0 -185 0 0 185 0 185
185 0 185 0 0 -185z m1185 0 l0 -180 -187 -3 -188 -2 0 178 c0 98 3 182 7 186
4 3 88 5 187 4 l181 -3 0 -180z m393 -2 l2 -183 -185 0 -185 0 0 185 0 185
183 -2 182 -3 3 -182z m397 2 l0 -180 -187 -3 -188 -2 0 185 0 185 188 -2 187
-3 0 -180z m1180 0 l0 -180 -187 -3 -188 -2 0 178 c0 98 3 182 7 186 4 3 88 5
187 4 l181 -3 0 -180z m-3155 -390 c0 -99 -4 -183 -9 -188 -4 -4 -86 -6 -182
-5 l-174 3 -3 188 -2 187 186 -2 186 -3 -2 -180z m1975 -5 l0 -185 -185 0
-185 0 -3 175 c-1 96 0 180 3 187 3 11 44 13 187 11 l183 -3 0 -185z m393 -2
l2 -188 -184 0 c-165 0 -185 2 -191 17 -7 19 -5 343 2 356 2 4 86 6 186 5
l182 -3 3 -187z m390 0 l2 -188 -185 0 -185 0 0 190 0 190 183 -2 182 -3 3
-187z m-2363 -388 l0 -185 -185 0 -185 0 -3 175 c-1 96 0 180 3 187 3 11 44
13 187 11 l183 -3 0 -185z m390 0 l0 -185 -180 0 -180 0 -3 188 -2 187 182 -2
183 -3 0 -185z m395 0 l0 -190 -169 0 c-93 0 -176 3 -185 6 -14 5 -16 31 -16
183 0 98 3 181 7 184 3 4 87 7 185 7 l178 0 0 -190z m1188 3 l-3 -188 -174 -3
c-119 -2 -178 1 -187 9 -11 9 -14 48 -14 174 0 90 3 170 6 179 5 14 32 16 190
16 l184 0 -2 -187z m390 0 l-3 -188 -180 0 -180 0 -3 188 -2 187 185 0 185 0
-2 -187z m-2363 -788 l0 -180 -185 0 -185 0 -3 183 -2 182 187 -2 188 -3 0
-180z m395 0 l0 -185 -185 0 -185 0 0 185 0 185 185 0 185 0 0 -185z m392 23
c2 -90 2 -173 0 -185 -3 -23 -4 -23 -188 -23 l-184 0 0 185 0 185 185 0 184 0
3 -162z m1188 -22 c0 -138 -3 -186 -12 -190 -10 -5 -10 -7 0 -12 9 -4 12 -52
12 -190 l0 -184 -187 2 -188 3 -2 170 c-1 126 2 175 11 190 11 17 11 22 0 33
-11 10 -14 50 -14 172 0 87 3 165 6 174 5 14 32 16 190 16 l184 0 0 -184z
m390 0 c0 -138 -3 -186 -12 -190 -10 -5 -10 -7 0 -12 9 -4 12 -52 12 -190 l0
-184 -185 0 -185 0 0 183 c0 129 4 187 12 195 9 9 9 12 0 12 -9 0 -12 48 -12
185 l0 185 185 0 185 0 0 -184z m-2760 -391 l0 -185 -185 0 -185 0 0 185 0
185 185 0 185 0 0 -185z m1975 0 l0 -180 -187 -3 -188 -2 0 185 0 185 188 -2
187 -3 0 -180z m-1974 -389 c0 -142 -3 -181 -14 -187 -7 -5 -90 -7 -183 -6
l-169 2 -3 188 -2 187 185 -2 186 -3 0 -179z m1187 1 c2 -168 1 -178 -17 -185
-11 -4 -96 -6 -190 -4 l-171 3 0 178 c0 98 3 181 7 185 4 3 88 5 187 4 l181
-3 3 -178z m390 -4 c2 -178 2 -183 -18 -183 -11 0 -83 -1 -160 -1 -77 0 -151
1 -165 1 l-25 0 0 185 0 185 183 -2 182 -3 3 -182z m400 8 c1 -96 -1 -178 -6
-183 -7 -7 -141 -10 -344 -8 l-28 0 0 178 c0 98 3 182 7 186 4 3 88 5 187 4
l181 -3 3 -174z m1177 -6 l0 -180 -187 -3 -188 -2 0 178 c0 98 3 182 7 186 4
3 88 5 187 4 l181 -3 0 -180z m-3159 -214 c5 -6 8 -86 6 -190 l-3 -181 -184 0
-185 0 0 183 c0 101 3 187 7 190 10 11 348 8 359 -2z m402 -183 l2 -188 -184
0 c-144 0 -185 3 -189 13 -10 27 -6 341 4 354 8 9 54 12 187 10 l177 -2 3
-187z m387 -398 l0 -185 -185 0 -185 0 -3 175 c-1 96 0 180 3 187 3 11 44 13
187 11 l183 -3 0 -185z"/>
<path d="M3212 1183 c-12 -2 -26 -12 -31 -21 -10 -21 -25 -392 -26 -637 0
-205 10 -258 60 -311 38 -40 87 -47 105 -14 7 13 10 90 9 210 -2 211 -1 216
61 226 77 12 81 47 7 58 -25 4 -47 12 -49 19 -1 7 -3 102 -3 212 l0 200 50 3
c71 3 95 10 95 27 0 8 -9 19 -19 25 -19 10 -211 12 -259 3z"/>
<path d="M6295 1185 c-5 -2 -23 -6 -38 -9 -23 -6 -28 -11 -25 -33 3 -22 13
-29 63 -47 l60 -21 3 -100 c2 -55 -4 -243 -13 -417 -17 -331 -16 -346 25 -368
23 -12 90 -13 108 -1 26 16 33 92 38 446 3 198 7 375 10 392 7 50 43 63 163
63 89 0 101 2 111 19 16 31 12 38 -22 51 -42 14 -451 36 -483 25z"/>
<path d="M7784 1180 c-12 -5 -25 -13 -28 -18 -3 -5 -7 -215 -8 -465 -3 -449
-3 -456 18 -484 18 -24 29 -28 75 -31 67 -4 79 10 79 93 0 34 5 76 11 94 11
30 89 101 112 101 6 0 7 -39 3 -109 -7 -103 -6 -111 13 -130 24 -24 102 -29
118 -8 6 7 13 119 16 257 3 135 11 328 18 428 14 203 14 202 -47 202 -65 0
-70 -14 -88 -235 -9 -110 -19 -231 -22 -270 -4 -38 -11 -76 -17 -83 -14 -17
-87 -55 -94 -48 -3 2 -4 116 -4 253 1 266 -9 401 -34 439 -12 19 -24 24 -58
23 -23 0 -52 -4 -63 -9z"/>
<path d="M3581 851 c-24 -24 -27 -39 -46 -256 -22 -239 -21 -312 3 -344 34
-46 78 -64 169 -69 94 -5 131 6 167 49 34 40 37 88 23 372 -15 300 -32 330
-32 57 -1 -266 -1 -267 -30 -295 -19 -20 -34 -25 -75 -25 -49 0 -52 1 -67 37
-11 26 -18 101 -26 253 -5 118 -14 221 -20 228 -14 18 -44 15 -66 -7z"/>
<path d="M4006 849 c-8 -34 -26 -411 -26 -527 0 -72 4 -103 16 -120 18 -26 59
-29 92 -6 20 14 22 23 22 125 0 98 2 109 18 109 24 0 66 -39 142 -130 34 -41
72 -83 84 -92 24 -20 76 -24 76 -5 0 19 -97 144 -167 215 -35 35 -63 67 -63
72 0 4 19 19 43 33 23 14 53 37 66 50 21 23 23 33 19 91 -8 126 -89 195 -239
204 -76 4 -78 4 -83 -19z m187 -55 c94 -94 82 -214 -23 -238 -49 -10 -54 2
-58 143 l-4 131 24 0 c15 0 39 -14 61 -36z"/>
<path d="M4542 858 c-17 -17 -18 -648 0 -666 16 -16 63 -15 81 2 11 11 16 57
22 178 l7 162 79 -155 c76 -150 98 -179 139 -179 27 0 3 72 -70 217 -44 87
-80 163 -80 170 0 6 25 59 55 118 64 126 68 145 26 145 -35 0 -61 -30 -112
-130 l-33 -65 -11 105 -10 105 -40 3 c-23 2 -46 -3 -53 -10z"/>
<path d="M5213 858 c-6 -7 -16 -31 -23 -53 -24 -75 -139 -343 -195 -454 -30
-61 -55 -115 -55 -121 0 -25 32 -6 57 33 39 62 49 67 125 67 l68 0 29 -58 c31
-62 65 -92 104 -92 55 0 73 75 42 176 -21 70 -51 229 -70 374 -9 68 -22 128
-28 132 -18 12 -43 9 -54 -4z m-41 -383 l3 -90 -44 -3 c-24 -2 -48 1 -53 6 -5
5 0 28 12 55 11 26 29 68 40 94 12 27 24 43 30 37 4 -5 10 -49 12 -99z"/>
<path d="M5500 851 c-15 -29 -14 -643 2 -659 13 -13 106 -16 124 -4 21 14 22
42 4 272 -9 129 -14 241 -10 248 9 19 61 -108 121 -297 64 -200 76 -225 111
-229 15 -2 36 2 48 8 19 10 20 18 20 320 0 169 -3 315 -6 324 -10 25 -53 20
-64 -8 -5 -13 -12 -112 -16 -220 -7 -194 -16 -237 -41 -204 -5 7 -47 105 -92
218 -46 113 -89 215 -97 228 -19 30 -88 32 -104 3z"/>
<path d="M6703 860 l-23 -9 0 -316 c0 -302 1 -316 20 -335 25 -25 82 -27 101
-4 8 10 16 50 19 93 5 72 7 77 34 90 20 9 37 11 60 4 l31 -9 0 -80 c0 -99 10
-114 74 -114 26 0 52 5 59 12 8 8 12 54 12 143 0 71 7 215 15 319 13 154 13
191 3 198 -15 10 -86 4 -99 -9 -5 -5 -18 -92 -30 -193 -12 -102 -24 -192 -29
-200 -4 -10 -25 -16 -59 -18 l-51 -3 0 139 c0 147 -12 243 -36 280 -16 24 -59
29 -101 12z"/>
<path d="M7205 863 c-11 -3 -25 -9 -31 -14 -13 -11 -28 -237 -29 -429 0 -154
12 -191 75 -222 38 -19 204 -26 214 -9 9 14 -20 21 -84 21 -48 0 -61 4 -70 19
-13 24 -13 300 0 321 5 8 34 20 65 25 31 6 56 15 56 20 0 6 -24 15 -53 20
l-53 10 -3 103 -3 102 76 0 c57 0 75 3 75 14 0 8 -7 17 -16 20 -18 7 -189 6
-219 -1z"/>
<path d="M8355 850 c-22 -25 -28 -61 -51 -322 -20 -232 -15 -272 34 -306 64
-46 204 -57 273 -21 68 34 73 58 65 304 -8 248 -16 355 -27 355 -4 0 -9 -106
-11 -236 l-3 -236 -28 -24 c-40 -34 -110 -34 -133 1 -19 30 -33 171 -34 347 0
101 -3 130 -16 142 -21 22 -47 20 -69 -4z"/>
<path d="M9202 850 c-11 -12 -44 -68 -72 -123 -69 -135 -71 -137 -103 -95 -14
18 -47 71 -74 118 -39 70 -53 86 -75 88 -19 2 -30 -3 -37 -17 -11 -20 -41
-435 -41 -568 0 -75 13 -98 24 -40 3 17 15 136 26 262 24 269 28 295 40 295 6
0 33 -47 61 -105 53 -110 74 -131 116 -120 25 6 47 46 87 158 11 29 24 47 33
47 14 0 15 -11 10 -72 -4 -40 -12 -158 -18 -261 -14 -222 -11 -237 50 -237 21
0 44 6 51 14 19 24 10 601 -10 641 -19 37 -42 42 -68 15z"/>
<path d="M9626 861 c-3 -4 -19 -44 -35 -87 -51 -138 -150 -366 -197 -452 -24
-46 -42 -87 -39 -92 12 -20 32 -9 53 28 36 65 51 73 128 70 l69 -3 30 -58 c41
-80 101 -110 138 -69 29 32 30 67 3 164 -26 96 -60 284 -72 398 -9 90 -18 110
-48 110 -14 0 -27 -4 -30 -9z m-41 -366 c4 -46 5 -91 1 -100 -4 -10 -19 -15
-51 -15 -38 0 -45 3 -45 19 0 24 70 181 81 181 4 0 10 -38 14 -85z"/>
<path d="M9910 851 c-15 -29 -14 -643 2 -659 7 -7 38 -12 70 -12 51 0 60 3 67
23 5 13 2 119 -8 257 -10 129 -15 242 -12 250 7 22 57 -97 117 -285 70 -216
81 -239 116 -243 15 -2 36 2 48 8 19 10 20 18 20 320 0 169 -3 315 -6 324 -10
25 -53 20 -63 -7 -5 -13 -13 -112 -17 -220 -7 -195 -16 -238 -41 -205 -5 7
-47 105 -92 218 -46 113 -89 215 -97 228 -19 30 -88 32 -104 3z"/>
</g>
</svg>
